<svg width="1169" height="322" viewBox="0 0 1169 322" fill="none" xmlns="http://www.w3.org/2000/svg">
<g opacity="0.25">
<path d="M-0.333252 198.221C13.5221 198.221 118.823 317.378 258.168 317.378C451.748 317.378 555.975 -116.697 828.614 4.64199C1044.76 100.838 1139.77 111.13 1179.35 44.2289" stroke="#BECED8"/>
<path d="M-0.333252 95.2956C11.9387 104.401 118.823 317.377 258.168 317.377C451.748 317.377 587.644 -69.1934 860.283 52.146C1076.43 148.342 1110.47 132.903 1179.35 83.8155" stroke="#BECED8"/>
<path d="M-0.333252 261.56C13.5221 261.56 118.823 320.544 258.168 320.544C451.748 320.544 558.236 -187.544 812.779 -31.7781C998.441 81.8359 1108.1 126.965 1179.35 75.898" stroke="#BECED8"/>
</g>
</svg>
