<svg width="1728" height="719" viewBox="0 0 1728 719" fill="none" xmlns="http://www.w3.org/2000/svg">
<path d="M-187.63 488.465C-161.611 488.465 36.1265 712.221 297.795 712.221C661.305 712.221 857.027 -102.901 1369 124.955C1774.88 305.595 1953.29 324.923 2027.63 199.292" stroke="#D3D5D6"/>
<path d="M-187.63 295.187C-164.585 312.285 36.1265 712.221 297.795 712.221C661.305 712.221 916.497 -13.6961 1428.47 214.16C1834.35 394.8 1898.28 365.808 2027.63 273.63" stroke="#D3D5D6"/>
<path d="M-187.63 607.405C-161.611 607.405 36.1265 718.168 297.795 718.168C661.305 718.168 861.272 -235.938 1339.26 56.5639C1687.91 269.913 1893.82 354.658 2027.63 258.762" stroke="#D3D5D6"/>
</svg>
